<?xml version="1.0" encoding="UTF-8"?>
<svg version="1.1" xmlns="http://www.w3.org/2000/svg" width="682" height="488">
<path d="M0 0 C8.79866112 7.06092555 15.62554529 16.76709234 17.25 27.9375 C18.16768376 38.79987918 15.2410223 47.95096654 9.25 56.9375 C8.59 56.9375 7.93 56.9375 7.25 56.9375 C6.97671875 57.54207031 6.7034375 58.14664063 6.421875 58.76953125 C1.71770127 67.47225265 -10.88583584 72.91015307 -19.1015625 78.0234375 C-35.80141692 88.36202656 -35.80141692 88.36202656 -50.75 100.9375 C-52.07 100.9375 -53.39 100.9375 -54.75 100.9375 C-55.059375 101.80375 -55.059375 101.80375 -55.375 102.6875 C-57.28585377 105.81435162 -59.62473016 107.05054462 -62.75 108.9375 C-63.31203125 109.27910156 -63.8740625 109.62070313 -64.453125 109.97265625 C-67.3608488 111.69502418 -70.18638575 113.12124137 -73.3125 114.4375 C-76.81037448 115.83790939 -76.81037448 115.83790939 -79.875 118.0625 C-82.65434296 119.87511498 -84.49534991 120.55459999 -87.75 120.9375 C-88.08 121.9275 -88.41 122.9175 -88.75 123.9375 C-93.00210538 127.44138083 -97.59084974 129.92356759 -102.71875 131.8828125 C-106.87856372 134.04271578 -110.50223524 137.18423964 -114.17578125 140.07421875 C-116.75 141.9375 -116.75 141.9375 -118.75 141.9375 C-118.75 142.5975 -118.75 143.2575 -118.75 143.9375 C-124.19994171 149.71537517 -131.11001381 154.63380525 -137.75 158.9375 C-138.41 158.9375 -139.07 158.9375 -139.75 158.9375 C-139.75 159.5975 -139.75 160.2575 -139.75 160.9375 C-140.41 160.9375 -141.07 160.9375 -141.75 160.9375 C-142.0903125 162.0203125 -142.0903125 162.0203125 -142.4375 163.125 C-145.03795186 168.69739684 -150.37652649 173.01588861 -155.75 175.9375 C-159.4375 176.625 -159.4375 176.625 -162.75 176.9375 C-164.09361095 177.5832026 -165.42620197 178.25209429 -166.75 178.9375 C-168.32403776 179.50561297 -169.9078301 180.04738621 -171.5 180.5625 C-172.29921875 180.82289063 -173.0984375 181.08328125 -173.921875 181.3515625 C-174.52515625 181.54492188 -175.1284375 181.73828125 -175.75 181.9375 C-175.75 182.5975 -175.75 183.2575 -175.75 183.9375 C-176.69875 184.246875 -177.6475 184.55625 -178.625 184.875 C-181.61080408 185.81144742 -181.61080408 185.81144742 -183.75 186.9375 C-183.75 187.9275 -183.75 188.9175 -183.75 189.9375 C-184.41 189.9375 -185.07 189.9375 -185.75 189.9375 C-185.75 190.5975 -185.75 191.2575 -185.75 191.9375 C-186.41 191.9375 -187.07 191.9375 -187.75 191.9375 C-187.75 193.9175 -187.75 195.8975 -187.75 197.9375 C-188.41 197.9375 -189.07 197.9375 -189.75 197.9375 C-190.03875 198.576875 -190.3275 199.21625 -190.625 199.875 C-191.75 201.9375 -191.75 201.9375 -193.75 202.9375 C-194.08 203.9275 -194.41 204.9175 -194.75 205.9375 C-194.09 205.9375 -193.43 205.9375 -192.75 205.9375 C-191.60075225 207.09319212 -190.45486218 208.25238819 -189.32470703 209.42675781 C-186.22394594 212.40156551 -182.67610115 214.81704161 -179.1875 217.3125 C-178.38900635 217.88613281 -177.5905127 218.45976562 -176.76782227 219.05078125 C-169.94935178 223.89629719 -162.98216071 228.22865084 -155.546875 232.078125 C-149.6925523 235.15706509 -144.50096764 238.93991672 -139.2409668 242.92871094 C-135.21903998 245.95781284 -131.1507474 248.49037919 -126.75 250.9375 C-124.92970055 252.09195973 -123.11665214 253.25796517 -121.3125 254.4375 C-118.24487018 256.41192299 -115.25962529 258.24577589 -111.9375 259.75 C-107.40090308 261.91247521 -103.47940172 264.93025408 -99.44165039 267.88647461 C-95.040127 271.08352903 -90.5236038 273.98968679 -85.875 276.8125 C-79.38960017 280.76555066 -73.35212688 285.13983872 -67.32641602 289.75732422 C-63.18650597 292.91295214 -59.00387096 295.6858124 -54.48046875 298.26953125 C-48.42702841 301.96741255 -42.7420845 306.25289473 -36.96679688 310.36621094 C-29.07604597 315.95925861 -21.1331553 321.486731 -12.9375 326.625 C-7.37983621 330.12176719 -1.77969342 333.70555293 3.25 337.9375 C3.25 338.5975 3.25 339.2575 3.25 339.9375 C3.91 339.9375 4.57 339.9375 5.25 339.9375 C12.99437334 347.83793124 17.69193748 356.94933402 17.75 368.0625 C17.60752811 375.91316055 15.76835363 382.02317025 12.25 388.9375 C11.59 388.9375 10.93 388.9375 10.25 388.9375 C10.25 389.9275 10.25 390.9175 10.25 391.9375 C8.875 393.625 8.875 393.625 7.25 394.9375 C6.59 394.9375 5.93 394.9375 5.25 394.9375 C5.25 395.5975 5.25 396.2575 5.25 396.9375 C4.59 396.9375 3.93 396.9375 3.25 396.9375 C2.92 397.9275 2.59 398.9175 2.25 399.9375 C-0.48046875 401.5078125 -0.48046875 401.5078125 -3.9375 403.0625 C-5.06542969 403.58070313 -6.19335938 404.09890625 -7.35546875 404.6328125 C-17.49660694 408.53055721 -29.5269206 407.81465976 -39.5546875 403.8203125 C-49.99725476 398.81127617 -59.81568805 392.32778524 -69.375 385.8125 C-77.38499005 380.40575671 -85.81037628 375.61116216 -94.75 371.9375 C-94.09 372.5975 -93.43 373.2575 -92.75 373.9375 C-92.75 374.9275 -92.75 375.9175 -92.75 376.9375 C-93.77480469 376.91429687 -94.79960937 376.89109375 -95.85546875 376.8671875 C-97.21613851 376.84841964 -98.5768162 376.83022053 -99.9375 376.8125 C-100.61103516 376.79574219 -101.28457031 376.77898437 -101.97851562 376.76171875 C-106.10464885 376.72146379 -108.99930825 377.30866381 -112.75 378.9375 C-117.19019993 379.55965191 -121.82405788 380.05213443 -125.80859375 377.74609375 C-126.67677734 377.03646484 -126.67677734 377.03646484 -127.5625 376.3125 C-129.1403125 375.136875 -129.1403125 375.136875 -130.75 373.9375 C-134.13800816 374.45275421 -134.13800816 374.45275421 -136.75 375.9375 C-136.9046875 377.484375 -136.9046875 377.484375 -137.0625 379.0625 C-138.55094603 387.45192308 -143.82994622 394.45444452 -150.76953125 399.3671875 C-173.58453173 411.69718776 -215.7374951 401.95045777 -239.75 394.9375 C-258.92362831 389.20814026 -279.12547581 381.78554079 -294.75 368.9375 C-296.39768437 368.00058144 -298.04604234 367.06472538 -299.703125 366.14453125 C-303.8778393 363.68272454 -307.99544478 361.00460144 -311.75 357.9375 C-311.75 357.2775 -311.75 356.6175 -311.75 355.9375 C-312.29398437 355.710625 -312.83796875 355.48375 -313.3984375 355.25 C-316.44528136 353.54943598 -318.84766683 351.3096246 -321.375 348.9375 C-321.90061523 348.44838135 -322.42623047 347.9592627 -322.96777344 347.45532227 C-339.55329481 331.93830084 -339.55329481 331.93830084 -345.75 322.9375 C-345.75 322.2775 -345.75 321.6175 -345.75 320.9375 C-346.41 320.9375 -347.07 320.9375 -347.75 320.9375 C-349.3866755 318.67451547 -350.89565511 316.42482888 -352.375 314.0625 C-352.79523438 313.41152344 -353.21546875 312.76054687 -353.6484375 312.08984375 C-356.75 307.20588981 -356.75 307.20588981 -356.75 304.9375 C-357.41 304.9375 -358.07 304.9375 -358.75 304.9375 C-363.17152482 297.11359615 -367.11052527 289.15344159 -370.75 280.9375 C-371.41708984 279.43509766 -371.41708984 279.43509766 -372.09765625 277.90234375 C-382.83567526 252.97831798 -394.69257713 210.7652314 -385.75 183.9375 C-385.49232692 180.69511373 -385.30753192 177.45887679 -385.14453125 174.2109375 C-384.85159485 169.03909485 -384.85159485 169.03909485 -383.75 167.9375 C-383.58836351 166.48277159 -383.47175101 165.02297949 -383.375 163.5625 C-382.93876833 158.76395158 -381.90978967 154.3894848 -380.55859375 149.7734375 C-379.74721543 146.92773383 -379.09119369 144.07303547 -378.4375 141.1875 C-376.60407969 133.81582043 -373.71320173 126.90864372 -370.75 119.9375 C-370.45512695 119.23415527 -370.16025391 118.53081055 -369.85644531 117.80615234 C-368.95453427 115.65867604 -368.04202929 113.51605972 -367.125 111.375 C-366.84817383 110.72047852 -366.57134766 110.06595703 -366.28613281 109.39160156 C-364.48404087 105.25212173 -362.30824534 101.64773411 -359.75 97.9375 C-359.00244942 96.57240764 -358.27154222 95.19798481 -357.5625 93.8125 C-354.85577274 88.86400476 -351.53387627 84.48888919 -348.1015625 80.0234375 C-345.08527645 76.06518837 -342.23016805 72.00004339 -339.37890625 67.921875 C-338.84136719 67.26703125 -338.30382812 66.6121875 -337.75 65.9375 C-337.09 65.9375 -336.43 65.9375 -335.75 65.9375 C-335.42322266 65.12345703 -335.42322266 65.12345703 -335.08984375 64.29296875 C-333.29662762 61.14046342 -330.87934322 58.77010742 -328.3125 56.25 C-327.77536377 55.71963135 -327.23822754 55.1892627 -326.68481445 54.64282227 C-298.51081108 27.18093183 -259.95163258 6.38217119 -220.75 0.9375 C-219.85667969 0.80504883 -218.96335937 0.67259766 -218.04296875 0.53613281 C-203.870094 -1.50891559 -189.80201173 -2.36769469 -175.5 -2.4375 C-174.76316986 -2.44526459 -174.02633972 -2.45302917 -173.2671814 -2.46102905 C-171.15164151 -2.47868937 -169.03742698 -2.47382918 -166.921875 -2.4609375 C-165.7059668 -2.45755371 -164.49005859 -2.45416992 -163.23730469 -2.45068359 C-158.49770712 -1.92310307 -155.00384454 -0.18942227 -150.75 1.9375 C-150.75 2.5975 -150.75 3.2575 -150.75 3.9375 C-149.986875 4.164375 -149.22375 4.39125 -148.4375 4.625 C-144.66615159 6.46682132 -143.51639777 8.9169968 -142.0625 12.75 C-140.89793814 20.90193301 -142.48288076 28.88224196 -143.75 36.9375 C-143.09 37.2675 -142.43 37.5975 -141.75 37.9375 C-141.75 38.9275 -141.75 39.9175 -141.75 40.9375 C-141.13125 41.205625 -140.5125 41.47375 -139.875 41.75 C-137.75 42.9375 -137.75 42.9375 -135.75 45.9375 C-135.75 47.2575 -135.75 48.5775 -135.75 49.9375 C-128.99087781 49.52002481 -124.35473563 48.20786528 -118.5 44.875 C-117.76837646 44.4730542 -117.03675293 44.0711084 -116.28295898 43.65698242 C-110.64126141 40.52653203 -105.12524703 37.20479249 -99.6640625 33.76953125 C-97.02921361 32.11303778 -94.36910416 30.51666689 -91.6875 28.9375 C-86.83491224 26.04491512 -82.17095555 22.89432924 -77.484375 19.7421875 C-74.94577437 18.06671108 -72.36745973 16.51875208 -69.703125 15.05078125 C-66.94558969 13.47898612 -64.26045039 11.79683419 -61.5625 10.125 C-59.29278166 8.72734679 -57.02128589 7.33260672 -54.75 5.9375 C-53.72003906 5.29941406 -52.69007813 4.66132813 -51.62890625 4.00390625 C-35.45291491 -5.77741491 -17.28358862 -10.96227612 0 0 Z M-199.75 201.9375 C-199.09 202.5975 -198.43 203.2575 -197.75 203.9375 C-197.75 203.2775 -197.75 202.6175 -197.75 201.9375 C-198.41 201.9375 -199.07 201.9375 -199.75 201.9375 Z " fill="#020202" transform="translate(532.75,26.0625)"/>
<path d="M0 0 C8.61770339 6.18589997 13.97188052 14.29064155 17.3125 24.3125 C18.40555274 35.76267544 15.71159382 45.91626866 9.01953125 55.28515625 C6.69934561 58.04070853 4.13559153 60.34533386 1.33984375 62.609375 C-0.82010379 64.36292818 -0.82010379 64.36292818 -3.0703125 66.7890625 C-5.74118151 69.36425859 -8.30111512 71.07319482 -11.5 72.9375 C-16.67679711 76.02828182 -21.71634136 79.27542861 -26.6875 82.6875 C-27.35797363 83.14769531 -28.02844727 83.60789062 -28.71923828 84.08203125 C-34.30776388 87.96359002 -39.64172368 92.11991696 -44.91796875 96.4140625 C-47.6800861 98.30741797 -49.44157298 98.81001664 -52.6875 99.3125 C-53.37236725 100.63657669 -54.03620203 101.97159241 -54.6875 103.3125 C-57.375 105.3125 -57.375 105.3125 -60.6875 107.3125 C-61.24953125 107.65410156 -61.8115625 107.99570313 -62.390625 108.34765625 C-65.2983488 110.07002418 -68.12388575 111.49624137 -71.25 112.8125 C-74.74787448 114.21290939 -74.74787448 114.21290939 -77.8125 116.4375 C-80.59184296 118.25011498 -82.43284991 118.92959999 -85.6875 119.3125 C-86.0175 120.3025 -86.3475 121.2925 -86.6875 122.3125 C-90.93960538 125.81638083 -95.52834974 128.29856759 -100.65625 130.2578125 C-104.81606372 132.41771578 -108.43973524 135.55923964 -112.11328125 138.44921875 C-114.6875 140.3125 -114.6875 140.3125 -116.6875 140.3125 C-116.6875 140.9725 -116.6875 141.6325 -116.6875 142.3125 C-122.13744171 148.09037517 -129.04751381 153.00880525 -135.6875 157.3125 C-136.3475 157.3125 -137.0075 157.3125 -137.6875 157.3125 C-137.6875 157.9725 -137.6875 158.6325 -137.6875 159.3125 C-138.3475 159.3125 -139.0075 159.3125 -139.6875 159.3125 C-140.0278125 160.3953125 -140.0278125 160.3953125 -140.375 161.5 C-142.97545186 167.07239684 -148.31402649 171.39088861 -153.6875 174.3125 C-157.375 175 -157.375 175 -160.6875 175.3125 C-162.03111095 175.9582026 -163.36370197 176.62709429 -164.6875 177.3125 C-166.26153776 177.88061297 -167.8453301 178.42238621 -169.4375 178.9375 C-170.23671875 179.19789063 -171.0359375 179.45828125 -171.859375 179.7265625 C-172.46265625 179.91992188 -173.0659375 180.11328125 -173.6875 180.3125 C-173.6875 180.9725 -173.6875 181.6325 -173.6875 182.3125 C-174.63625 182.621875 -175.585 182.93125 -176.5625 183.25 C-179.54830408 184.18644742 -179.54830408 184.18644742 -181.6875 185.3125 C-181.6875 186.3025 -181.6875 187.2925 -181.6875 188.3125 C-182.3475 188.3125 -183.0075 188.3125 -183.6875 188.3125 C-183.6875 188.9725 -183.6875 189.6325 -183.6875 190.3125 C-184.3475 190.3125 -185.0075 190.3125 -185.6875 190.3125 C-185.6875 192.2925 -185.6875 194.2725 -185.6875 196.3125 C-186.3475 196.3125 -187.0075 196.3125 -187.6875 196.3125 C-187.97625 196.951875 -188.265 197.59125 -188.5625 198.25 C-189.6875 200.3125 -189.6875 200.3125 -191.6875 201.3125 C-192.0175 202.3025 -192.3475 203.2925 -192.6875 204.3125 C-192.0275 204.3125 -191.3675 204.3125 -190.6875 204.3125 C-189.53825225 205.46819212 -188.39236218 206.62738819 -187.26220703 207.80175781 C-184.16144594 210.77656551 -180.61360115 213.19204161 -177.125 215.6875 C-176.32650635 216.26113281 -175.5280127 216.83476562 -174.70532227 217.42578125 C-167.88685178 222.27129719 -160.91966071 226.60365084 -153.484375 230.453125 C-147.6300523 233.53206509 -142.43846764 237.31491672 -137.1784668 241.30371094 C-133.15653998 244.33281284 -129.0882474 246.86537919 -124.6875 249.3125 C-122.86720055 250.46695973 -121.05415214 251.63296517 -119.25 252.8125 C-116.18237018 254.78692299 -113.19712529 256.62077589 -109.875 258.125 C-105.33840308 260.28747521 -101.41690172 263.30525408 -97.37915039 266.26147461 C-92.977627 269.45852903 -88.4611038 272.36468679 -83.8125 275.1875 C-77.32710017 279.14055066 -71.28962688 283.51483872 -65.26391602 288.13232422 C-61.12400597 291.28795214 -56.94137096 294.0608124 -52.41796875 296.64453125 C-46.36452841 300.34241255 -40.6795845 304.62789473 -34.90429688 308.74121094 C-27.01354597 314.33425861 -19.0706553 319.861731 -10.875 325 C-5.31733621 328.49676719 0.28280658 332.08055293 5.3125 336.3125 C5.3125 336.9725 5.3125 337.6325 5.3125 338.3125 C5.9725 338.3125 6.6325 338.3125 7.3125 338.3125 C15.05687334 346.21293124 19.75443748 355.32433402 19.8125 366.4375 C19.67002811 374.28816055 17.83085363 380.39817025 14.3125 387.3125 C13.6525 387.3125 12.9925 387.3125 12.3125 387.3125 C12.3125 388.3025 12.3125 389.2925 12.3125 390.3125 C10.9375 392 10.9375 392 9.3125 393.3125 C8.6525 393.3125 7.9925 393.3125 7.3125 393.3125 C7.3125 393.9725 7.3125 394.6325 7.3125 395.3125 C6.6525 395.3125 5.9925 395.3125 5.3125 395.3125 C4.9825 396.3025 4.6525 397.2925 4.3125 398.3125 C1.58203125 399.8828125 1.58203125 399.8828125 -1.875 401.4375 C-3.00292969 401.95570313 -4.13085938 402.47390625 -5.29296875 403.0078125 C-15.43410694 406.90555721 -27.4644206 406.18965976 -37.4921875 402.1953125 C-48.96853611 396.69039731 -62.67332677 389.43584324 -71.6953125 380.2734375 C-74.35024154 377.66015441 -77.3936026 375.85189382 -80.5625 373.9375 C-82.01098619 373.04649813 -83.4588704 372.1545171 -84.90625 371.26171875 C-85.68097656 370.78524902 -86.45570313 370.3087793 -87.25390625 369.81787109 C-104.26371475 359.29595304 -120.96655731 348.28431174 -137.6875 337.3125 C-154.61950024 326.20410074 -171.60791696 315.19272378 -188.6875 304.3125 C-189.65204102 303.69745605 -190.61658203 303.08241211 -191.61035156 302.44873047 C-203.66533129 294.76036183 -203.66533129 294.76036183 -215.75390625 287.125 C-223.49639983 282.25855334 -231.19502065 277.35187413 -238.77734375 272.23901367 C-244.32757286 268.51308359 -249.97398525 264.94558238 -255.625 261.375 C-264.7983319 255.56362631 -273.85457355 249.63069569 -282.6875 243.3125 C-284.11642578 242.30509766 -284.11642578 242.30509766 -285.57421875 241.27734375 C-295.99372474 233.50659426 -302.43418842 223.48268987 -306.6875 211.3125 C-307.120625 210.19875 -307.55375 209.085 -308 207.9375 C-310.95702559 192.34591052 -307.15837258 178.4581007 -298.6875 165.3125 C-290.8772404 154.61415235 -279.69399681 147.48382314 -268.390625 140.90234375 C-265.07655459 138.95317228 -261.81908149 136.91805751 -258.5625 134.875 C-257.89500732 134.45702148 -257.22751465 134.03904297 -256.53979492 133.60839844 C-253.35504915 131.6135217 -250.17170802 129.61641128 -246.98876953 127.61865234 C-236.05533611 120.75842222 -225.10468258 113.93409568 -214.0625 107.25 C-205.42991572 102.02433409 -196.89800008 96.65742147 -188.40063477 91.21508789 C-182.7258497 87.58763604 -177.00576285 84.06152851 -171.2121582 80.62792969 C-165.57226603 77.27385939 -160.03853649 73.76014348 -154.50048828 70.24121094 C-147.66510831 65.90776657 -140.77530358 61.66662029 -133.875 57.4375 C-124.7524275 51.84294279 -115.68949746 46.16579862 -106.67578125 40.39770508 C-99.57577986 35.8597936 -92.41765419 31.42187297 -85.24243164 27.00415039 C-79.71813018 23.59409421 -74.24904821 20.11054334 -68.8125 16.5625 C-22.22672517 -13.7558316 -22.22672517 -13.7558316 0 0 Z M-197.6875 200.3125 C-197.0275 200.9725 -196.3675 201.6325 -195.6875 202.3125 C-195.6875 201.6525 -195.6875 200.9925 -195.6875 200.3125 C-196.3475 200.3125 -197.0075 200.3125 -197.6875 200.3125 Z " fill="#EAE6E8" transform="translate(530.6875,27.6875)"/>
<path d="M0 0 C0.73683014 -0.00776459 1.47366028 -0.01552917 2.2328186 -0.02352905 C4.34835849 -0.04118937 6.46257302 -0.03632918 8.578125 -0.0234375 C9.7940332 -0.02005371 11.00994141 -0.01666992 12.26269531 -0.01318359 C17.00229288 0.51439693 20.49615546 2.24807773 24.75 4.375 C24.75 5.035 24.75 5.695 24.75 6.375 C25.74 6.705 26.73 7.035 27.75 7.375 C30.7728049 11.42899586 32.48502724 16.13218627 32.203125 21.2265625 C31.01273759 26.87064074 28.30628181 31.81871819 24.25 35.875 C19.12202417 38.9517855 14.80590658 39.67517187 8.87890625 39.71875 C8.1201268 39.7333728 7.36134735 39.74799561 6.57957458 39.76306152 C4.15727025 39.80935817 1.73504022 39.84359804 -0.6875 39.875 C-11.71124289 40.02077221 -22.35289981 40.48958052 -33.25 42.375 C-34.12503174 42.51534668 -35.00006348 42.65569336 -35.90161133 42.80029297 C-66.46685756 47.8334092 -94.23083801 61.79172817 -117.25 82.375 C-118.12140625 83.10203125 -118.9928125 83.8290625 -119.890625 84.578125 C-127.0954362 90.69541753 -132.66063347 97.8113358 -138.25 105.375 C-138.91128906 106.26574219 -139.57257813 107.15648437 -140.25390625 108.07421875 C-141.98021604 110.4725149 -143.6292332 112.9043189 -145.25 115.375 C-145.79914063 116.19097656 -146.34828125 117.00695312 -146.9140625 117.84765625 C-158.64609942 136.46355958 -165.50002229 159.63099016 -168.25 181.375 C-168.36085937 182.1896875 -168.47171875 183.004375 -168.5859375 183.84375 C-169.66625889 193.30386165 -169.42148644 202.870616 -169.25 212.375 C-169.23324219 213.48746094 -169.21648437 214.59992188 -169.19921875 215.74609375 C-167.25030622 257.67555476 -145.54580546 295.68497958 -115.5625 323.9375 C-98.01235034 339.13471161 -76.62586951 351.93363829 -54.25 358.375 C-53.55797989 358.57423569 -52.86595978 358.77347137 -52.15296936 358.97874451 C-37.2698383 363.15149154 -22.8355537 364.36315794 -7.4375 364.9375 C-3.03394457 365.10536067 1.36761468 365.29793069 5.76953125 365.50390625 C7.24931206 365.54784264 7.24931206 365.54784264 8.75898743 365.59266663 C15.84595519 365.92413587 21.41188996 367.42960879 26.80859375 372.19140625 C27.26363281 372.76761719 27.71867188 373.34382813 28.1875 373.9375 C28.66058594 374.51628906 29.13367188 375.09507812 29.62109375 375.69140625 C32.43149427 379.88269561 32.19091251 384.53328154 31.75 389.375 C30.11695414 394.27413758 27.40168256 396.84964744 23.46875 399.98046875 C21.71261572 401.3373763 21.71261572 401.3373763 20.2421875 403.0078125 C12.51746209 410.0854405 -12.64222239 405.20522463 -22.49609375 404.78125 C-55.04171159 403.06616208 -93.7096913 392.37678695 -119.25 371.375 C-120.89768437 370.43808144 -122.54604234 369.50222538 -124.203125 368.58203125 C-128.3778393 366.12022454 -132.49544478 363.44210144 -136.25 360.375 C-136.25 359.715 -136.25 359.055 -136.25 358.375 C-136.79398437 358.148125 -137.33796875 357.92125 -137.8984375 357.6875 C-140.94528136 355.98693598 -143.34766683 353.7471246 -145.875 351.375 C-146.40061523 350.88588135 -146.92623047 350.3967627 -147.46777344 349.89282227 C-164.05329481 334.37580084 -164.05329481 334.37580084 -170.25 325.375 C-170.25 324.715 -170.25 324.055 -170.25 323.375 C-170.91 323.375 -171.57 323.375 -172.25 323.375 C-173.8866755 321.11201547 -175.39565511 318.86232888 -176.875 316.5 C-177.29523438 315.84902344 -177.71546875 315.19804687 -178.1484375 314.52734375 C-181.25 309.64338981 -181.25 309.64338981 -181.25 307.375 C-181.91 307.375 -182.57 307.375 -183.25 307.375 C-187.67152482 299.55109615 -191.61052527 291.59094159 -195.25 283.375 C-195.91708984 281.87259766 -195.91708984 281.87259766 -196.59765625 280.33984375 C-207.33567526 255.41581798 -219.19257713 213.2027314 -210.25 186.375 C-209.99232692 183.13261373 -209.80753192 179.89637679 -209.64453125 176.6484375 C-209.35159485 171.47659485 -209.35159485 171.47659485 -208.25 170.375 C-208.08836351 168.92027159 -207.97175101 167.46047949 -207.875 166 C-207.43876833 161.20145158 -206.40978967 156.8269848 -205.05859375 152.2109375 C-204.24721543 149.36523383 -203.59119369 146.51053547 -202.9375 143.625 C-201.10407969 136.25332043 -198.21320173 129.34614372 -195.25 122.375 C-194.95512695 121.67165527 -194.66025391 120.96831055 -194.35644531 120.24365234 C-193.45453427 118.09617604 -192.54202929 115.95355972 -191.625 113.8125 C-191.34817383 113.15797852 -191.07134766 112.50345703 -190.78613281 111.82910156 C-188.98404087 107.68962173 -186.80824534 104.08523411 -184.25 100.375 C-183.50244942 99.00990764 -182.77154222 97.63548481 -182.0625 96.25 C-179.35577274 91.30150476 -176.03387627 86.92638919 -172.6015625 82.4609375 C-169.58527645 78.50268837 -166.73016805 74.43754339 -163.87890625 70.359375 C-163.34136719 69.70453125 -162.80382812 69.0496875 -162.25 68.375 C-161.59 68.375 -160.93 68.375 -160.25 68.375 C-159.92322266 67.56095703 -159.92322266 67.56095703 -159.58984375 66.73046875 C-157.79662762 63.57796342 -155.37934322 61.20760742 -152.8125 58.6875 C-152.27536377 58.15713135 -151.73822754 57.6267627 -151.18481445 57.08032227 C-123.01081108 29.61843183 -84.45163258 8.81967119 -45.25 3.375 C-44.35667969 3.24254883 -43.46335937 3.11009766 -42.54296875 2.97363281 C-28.370094 0.92858441 -14.30201173 0.06980531 0 0 Z " fill="#E5E0E3" transform="translate(357.25,23.625)"/>
<path d="M0 0 C7.49796262 6.6261065 11.0823607 12.64604644 11.8321228 22.53909302 C12.19905445 30.10364797 12.20951003 37.67399526 12.23828125 45.24609375 C12.24235678 46.15879595 12.2464323 47.07149815 12.25063133 48.01185799 C12.27136539 52.83676033 12.2857251 57.66163525 12.29516602 62.48657227 C12.30624682 67.43674534 12.34070269 72.38647106 12.38033772 77.33648586 C12.406604 81.17577389 12.41486634 85.0149563 12.41844749 88.85432625 C12.42328192 90.67818307 12.43480471 92.5020362 12.45348549 94.32580376 C12.67522343 117.39297269 12.67522343 117.39297269 6.48994446 124.8110199 C5 126 5 126 3 126 C2.67 126.99 2.34 127.98 2 129 C-3.79395784 132.40080134 -9.37681357 132.83720053 -16 132 C-21.80727277 130.33309763 -26.12824662 127.71869943 -30 123 C-30.33 122.01 -30.66 121.02 -31 120 C-31.66 120 -32.32 120 -33 120 C-33 119.34 -33 118.68 -33 118 C-34.65 117.67 -36.3 117.34 -38 117 C-38 115.02 -38 113.04 -38 111 C-38.495 112.485 -38.495 112.485 -39 114 C-41.4375 115.75 -41.4375 115.75 -44 117 C-44.66 116.67 -45.32 116.34 -46 116 C-46 114.35 -46 112.7 -46 111 C-46.66 111 -47.32 111 -48 111 C-48.495 103.575 -48.495 103.575 -49 96 C-48.01 95.67 -47.02 95.34 -46 95 C-46 93.35 -46 91.7 -46 90 C-45.34 90 -44.68 90 -44 90 C-44 88.02 -44 86.04 -44 84 C-44.66 84 -45.32 84 -46 84 C-46.0825 82.906875 -46.165 81.81375 -46.25 80.6875 C-46.61163131 76.96399307 -46.61163131 76.96399307 -49.0625 75.25 C-49.701875 74.8375 -50.34125 74.425 -51 74 C-51 73.01 -51 72.02 -51 71 C-51.99 71 -52.98 71 -54 71 C-54.18175781 72.26457031 -54.18175781 72.26457031 -54.3671875 73.5546875 C-54.53476562 74.65039062 -54.70234375 75.74609375 -54.875 76.875 C-55.03742188 77.96554688 -55.19984375 79.05609375 -55.3671875 80.1796875 C-56 83 -56 83 -58 85 C-58.16681109 88.08347826 -58.16681109 88.08347826 -58 91 C-58.99 91 -59.98 91 -61 91 C-61.495 92.485 -61.495 92.485 -62 94 C-63.4375 95.6875 -63.4375 95.6875 -65 97 C-65.66 97 -66.32 97 -67 97 C-67.33 97.66 -67.66 98.32 -68 99 C-70.53597901 100.3736553 -73.13604884 101.56338639 -75.75 102.78125 C-78.13696534 103.79604539 -78.13696534 103.79604539 -79 106 C-83.95 105.67 -88.9 105.34 -94 105 C-94 104.34 -94 103.68 -94 103 C-94.9075 103.103125 -95.815 103.20625 -96.75 103.3125 C-106.27841571 103.27392342 -115.26487982 97.27062913 -122 91 C-125.6362268 87.28018178 -128.81738743 83.75535395 -131 79 C-132.32 79 -133.64 79 -135 79 C-135 79.66 -135 80.32 -135 81 C-134.34 81 -133.68 81 -133 81 C-130.8480563 84.22791555 -130.79913557 85.28400809 -131 89 C-130.34 89 -129.68 89 -129 89 C-129 89.99 -129 90.98 -129 92 C-128.34 92 -127.68 92 -127 92 C-127 92.66 -127 93.32 -127 94 C-126.34 94 -125.68 94 -125 94 C-125 94.66 -125 95.32 -125 96 C-124.34 96 -123.68 96 -123 96 C-123 96.66 -123 97.32 -123 98 C-125.97 98.495 -125.97 98.495 -129 99 C-129.4125 98.21625 -129.825 97.4325 -130.25 96.625 C-132.06666796 93.89999807 -133.02349469 93.1521956 -136 92 C-136.66 91.67 -137.32 91.34 -138 91 C-138 90.01 -138 89.02 -138 88 C-139.32 87.67 -140.64 87.34 -142 87 C-142 86.01 -142 85.02 -142 84 C-143.98 84 -145.96 84 -148 84 C-148.495 81.525 -148.495 81.525 -149 79 C-149.66 79 -150.32 79 -151 79 C-151.391875 77.989375 -151.78375 76.97875 -152.1875 75.9375 C-153.66692009 72.42387728 -155.62141154 69.63017276 -158.01171875 66.67578125 C-159 65 -159 65 -159 61 C-159.99 60.67 -160.98 60.34 -162 60 C-160.37660195 58.29115995 -158.70680947 56.62553283 -157 55 C-156.34 55 -155.68 55 -155 55 C-155 54.01 -155 53.02 -155 52 C-154.34 52 -153.68 52 -153 52 C-153 51.01 -153 50.02 -153 49 C-151.9275 48.566875 -150.855 48.13375 -149.75 47.6875 C-147.49109014 46.7323297 -145.88114193 45.90635425 -143.9375 44.375 C-141.38433533 42.56307668 -139.07167865 42.34905439 -136 42 C-136 41.34 -136 40.68 -136 40 C-132.535 39.505 -132.535 39.505 -129 39 C-129 38.34 -129 37.68 -129 37 C-118.85790484 31.35331999 -108.74685211 27.46605218 -97 28 C-96.505 27.505 -96.505 27.505 -96 27 C-86.8215487 25.56586698 -80.86149114 29.87192485 -73.6875 35 C-70.63718435 37.36232031 -68.1573414 39.7639879 -66 43 C-66 43.66 -66 44.32 -66 45 C-64.515 45.495 -64.515 45.495 -63 46 C-62.505 48.97 -62.505 48.97 -62 52 C-63.32 52.33 -64.64 52.66 -66 53 C-65.65775391 53.96486328 -65.65775391 53.96486328 -65.30859375 54.94921875 C-62.87120121 62.61115674 -62.95382585 69.07176456 -64 77 C-63.01 76.67 -62.02 76.34 -61 76 C-61 74.35 -61 72.7 -61 71 C-60.34 71 -59.68 71 -59 71 C-59 70.34 -59 69.68 -59 69 C-56.03 69 -53.06 69 -50 69 C-50 67.68 -50 66.36 -50 65 C-48.95199219 64.70996094 -48.95199219 64.70996094 -47.8828125 64.4140625 C-46.97273438 64.15367187 -46.06265625 63.89328125 -45.125 63.625 C-44.22007812 63.36976563 -43.31515625 63.11453125 -42.3828125 62.8515625 C-39.85430274 62.1395685 -39.85430274 62.1395685 -38 60 C-37.81272912 57.51409674 -37.74420715 55.14173878 -37.76953125 52.65625 C-37.76998947 51.93135376 -37.77044769 51.20645752 -37.7709198 50.45959473 C-37.77394201 48.92633427 -37.78182742 47.39307688 -37.79418945 45.85986328 C-37.81242761 43.50932978 -37.81469926 41.15919057 -37.81445312 38.80859375 C-37.81936909 37.32030908 -37.82519775 35.8320271 -37.83203125 34.34375 C-37.83314407 33.63851196 -37.8342569 32.93327393 -37.83540344 32.20666504 C-37.81987553 28.47851487 -37.81987553 28.47851487 -39 25 C-40.98 25.33 -42.96 25.66 -45 26 C-45 25.01 -45 24.02 -45 23 C-45.56203125 23.17402344 -46.1240625 23.34804687 -46.703125 23.52734375 C-49.24556755 24.05053346 -51.18452337 23.90204838 -53.75 23.5625 C-54.54921875 23.46066406 -55.3484375 23.35882813 -56.171875 23.25390625 C-56.77515625 23.17011719 -57.3784375 23.08632812 -58 23 C-58.33 23.66 -58.66 24.32 -59 25 C-59.66 24.67 -60.32 24.34 -61 24 C-61.73075648 21.6859378 -62.40138258 19.35171131 -63 17 C-62.34 17 -61.68 17 -61 17 C-61 15.68 -61 14.36 -61 13 C-60.34 13 -59.68 13 -59 13 C-59 12.34 -59 11.68 -59 11 C-57.68 10.67 -56.36 10.34 -55 10 C-55 9.34 -55 8.68 -55 8 C-53.68 7.67 -52.36 7.34 -51 7 C-51 7.66 -51 8.32 -51 9 C-49.35 9.33 -47.7 9.66 -46 10 C-46 11.65 -46 13.3 -46 15 C-45.34 15 -44.68 15 -44 15 C-44.20625 14.29875 -44.4125 13.5975 -44.625 12.875 C-45.07850357 9.39813928 -44.27540277 7.22601877 -43 4 C-42.505 5.98 -42.505 5.98 -42 8 C-41.01 8 -40.02 8 -39 8 C-39 8.66 -39 9.32 -39 10 C-37.68 10 -36.36 10 -35 10 C-35 9.34 -35 8.68 -35 8 C-34.34 8 -33.68 8 -33 8 C-33 7.01 -33 6.02 -33 5 C-32.34 5 -31.68 5 -31 5 C-30.95875 4.401875 -30.9175 3.80375 -30.875 3.1875 C-30 1 -30 1 -27.375 -0.625 C-17.73034179 -4.55430519 -9.28844124 -5.09953637 0 0 Z M-54 11 C-54 12.32 -54 13.64 -54 15 C-54.99 15.495 -54.99 15.495 -56 16 C-54.68 16 -53.36 16 -52 16 C-52 14.35 -52 12.7 -52 11 C-52.66 11 -53.32 11 -54 11 Z M-39 11 C-39 12.98 -39 14.96 -39 17 C-38.34 16.67 -37.68 16.34 -37 16 C-37.33 14.35 -37.66 12.7 -38 11 C-38.33 11 -38.66 11 -39 11 Z M-59 15 C-58.34 16.32 -57.68 17.64 -57 19 C-57.33 17.68 -57.66 16.36 -58 15 C-58.33 15 -58.66 15 -59 15 Z M-52 17 C-52 17.66 -52 18.32 -52 19 C-51.01 18.67 -50.02 18.34 -49 18 C-49.99 17.67 -50.98 17.34 -52 17 Z M-41 17 C-41 17.99 -41 18.98 -41 20 C-42.98 20.99 -42.98 20.99 -45 22 C-45 22.33 -45 22.66 -45 23 C-43.35 23 -41.7 23 -40 23 C-39.67 21.35 -39.34 19.7 -39 18 C-39.66 17.67 -40.32 17.34 -41 17 Z M-141 45 C-140 47 -140 47 -140 47 Z M-134 63 C-133 66 -133 66 -133 66 Z M-141 79 C-137 80 -137 80 -137 80 Z M-139 84 C-138 87 -138 87 -138 87 Z M-41 91 C-41.33 92.98 -41.66 94.96 -42 97 C-41.34 97 -40.68 97 -40 97 C-40 95.02 -40 93.04 -40 91 C-40.33 91 -40.66 91 -41 91 Z M-93 102 C-93 102.33 -93 102.66 -93 103 C-90.03 103 -87.06 103 -84 103 C-84 102.34 -84 101.68 -84 101 C-87.04200046 101 -89.99532806 101.55486342 -93 102 Z M-41 104 C-41 105.65 -41 107.3 -41 109 C-40.67 109 -40.34 109 -40 109 C-40 107.35 -40 105.7 -40 104 C-40.33 104 -40.66 104 -41 104 Z " fill="#E9E5E8" transform="translate(535,160)"/>
<path d="M0 0 C4.30139271 3.12828561 8.34976274 7.19952548 10.75 12 C10.85404477 13.37316824 10.89807038 14.75114203 10.91062927 16.12818909 C10.9206749 16.993004 10.93072052 17.85781891 10.94107056 18.74884033 C10.94690155 19.69998718 10.95273254 20.65113403 10.95874023 21.63110352 C10.97341591 23.13141365 10.97341591 23.13141365 10.98838806 24.66203308 C11.01838978 27.98431053 11.03974456 31.30654745 11.05859375 34.62890625 C11.06516558 35.76322523 11.0717374 36.89754421 11.07850838 38.0662365 C11.11112802 44.07417427 11.13556866 50.08209416 11.1550293 56.09008789 C11.17282249 61.05942696 11.20760816 66.02819646 11.25756836 70.99731445 C11.31782593 76.99730698 11.34851374 82.99677243 11.35820198 88.99705315 C11.36675109 91.28115909 11.38555557 93.56525118 11.4149456 95.84918404 C11.45395955 99.05445408 11.45488084 102.25768266 11.44702148 105.46313477 C11.46702209 106.400112 11.48702271 107.33708923 11.50762939 108.30245972 C11.43128991 115.26886393 9.29022815 119.73197036 4.75 125 C0.01613117 129.24509724 -4.99240681 129.75046055 -11.24609375 129.5 C-17.09484515 128.52647571 -20.95084549 125.74906544 -24.71836853 121.24429321 C-30.24982353 112.03926616 -28.95000682 101.00212825 -28.87890625 90.6484375 C-28.87973591 88.46228925 -28.88219896 86.27614106 -28.88621521 84.08999634 C-28.88906484 79.52237024 -28.87445084 74.95523677 -28.84692383 70.38769531 C-28.81280254 64.54582527 -28.81888101 58.70483316 -28.8375864 52.86292076 C-28.84817452 48.35375707 -28.83920268 43.84479625 -28.82420158 39.3356514 C-28.81903538 37.18196847 -28.81948251 35.02826422 -28.82574654 32.8745842 C-28.83122217 29.8617294 -28.81074926 26.85011555 -28.78344727 23.83740234 C-28.78997314 22.95615189 -28.79649902 22.07490143 -28.80322266 21.16694641 C-28.69916153 14.38287742 -27.08196051 8.81593055 -22.1796875 3.94140625 C-21.50164062 3.48636719 -20.82359375 3.03132812 -20.125 2.5625 C-19.10019531 1.85287109 -19.10019531 1.85287109 -18.0546875 1.12890625 C-12.63944289 -2.25855196 -5.98741082 -1.84228025 0 0 Z " fill="#EAE5E7" transform="translate(532.25,161)"/>
<path d="M0 0 C7.49796262 6.6261065 11.0823607 12.64604644 11.8321228 22.53909302 C12.19905445 30.10364797 12.20951003 37.67399526 12.23828125 45.24609375 C12.24235678 46.15879595 12.2464323 47.07149815 12.25063133 48.01185799 C12.27136539 52.83676033 12.2857251 57.66163525 12.29516602 62.48657227 C12.30624682 67.43674534 12.34070269 72.38647106 12.38033772 77.33648586 C12.406604 81.17577389 12.41486634 85.0149563 12.41844749 88.85432625 C12.42328192 90.67818307 12.43480471 92.5020362 12.45348549 94.32580376 C12.67522343 117.39297269 12.67522343 117.39297269 6.48994446 124.8110199 C5 126 5 126 3 126 C2.67 126.99 2.34 127.98 2 129 C-3.79395784 132.40080134 -9.37681357 132.83720053 -16 132 C-21.80727277 130.33309763 -26.12824662 127.71869943 -30 123 C-30.33 122.01 -30.66 121.02 -31 120 C-31.66 120 -32.32 120 -33 120 C-33 119.34 -33 118.68 -33 118 C-34.65 117.67 -36.3 117.34 -38 117 C-38 115.02 -38 113.04 -38 111 C-38.495 112.485 -38.495 112.485 -39 114 C-41.4375 115.75 -41.4375 115.75 -44 117 C-44.99 116.505 -44.99 116.505 -46 116 C-46 114.35 -46 112.7 -46 111 C-46.66 111 -47.32 111 -48 111 C-48.495 103.575 -48.495 103.575 -49 96 C-48.01 95.67 -47.02 95.34 -46 95 C-46 93.35 -46 91.7 -46 90 C-45.34 90 -44.68 90 -44 90 C-44 88.02 -44 86.04 -44 84 C-44.66 84 -45.32 84 -46 84 C-46.0825 82.906875 -46.165 81.81375 -46.25 80.6875 C-46.61163131 76.96399307 -46.61163131 76.96399307 -49.0625 75.25 C-49.701875 74.8375 -50.34125 74.425 -51 74 C-51 73.01 -51 72.02 -51 71 C-51.99 71 -52.98 71 -54 71 C-54.18175781 72.26457031 -54.18175781 72.26457031 -54.3671875 73.5546875 C-54.53476562 74.65039062 -54.70234375 75.74609375 -54.875 76.875 C-55.03742188 77.96554688 -55.19984375 79.05609375 -55.3671875 80.1796875 C-56 83 -56 83 -58 85 C-58.16681109 88.08347826 -58.16681109 88.08347826 -58 91 C-58.99 91 -59.98 91 -61 91 C-61.495 92.485 -61.495 92.485 -62 94 C-63.4375 95.6875 -63.4375 95.6875 -65 97 C-65.66 97 -66.32 97 -67 97 C-67.33 97.66 -67.66 98.32 -68 99 C-70.53597901 100.3736553 -73.13604884 101.56338639 -75.75 102.78125 C-78.13696534 103.79604539 -78.13696534 103.79604539 -79 106 C-83.95 105.67 -88.9 105.34 -94 105 C-94 104.34 -94 103.68 -94 103 C-94.99 103.061875 -95.98 103.12375 -97 103.1875 C-101.46888211 103.21491645 -104.91304608 101.7208227 -109 100 C-105.43438148 98.81146049 -102.75440763 99.04517102 -99 99.1875 C-88.87315635 99.33518568 -81.10919245 96.92394659 -73.72265625 89.87109375 C-70.40106577 86.26328913 -67.56904658 82.70713973 -66 78 C-63.4375 76.8125 -63.4375 76.8125 -61 76 C-61 74.35 -61 72.7 -61 71 C-60.34 71 -59.68 71 -59 71 C-59 70.34 -59 69.68 -59 69 C-56.03 69 -53.06 69 -50 69 C-50 67.68 -50 66.36 -50 65 C-49.30132812 64.80664062 -48.60265625 64.61328125 -47.8828125 64.4140625 C-46.97273438 64.15367187 -46.06265625 63.89328125 -45.125 63.625 C-44.22007812 63.36976563 -43.31515625 63.11453125 -42.3828125 62.8515625 C-39.85430274 62.1395685 -39.85430274 62.1395685 -38 60 C-37.81272912 57.51409674 -37.74420715 55.14173878 -37.76953125 52.65625 C-37.76998947 51.93135376 -37.77044769 51.20645752 -37.7709198 50.45959473 C-37.77394201 48.92633427 -37.78182742 47.39307688 -37.79418945 45.85986328 C-37.81242761 43.50932978 -37.81469926 41.15919057 -37.81445312 38.80859375 C-37.81936909 37.32030908 -37.82519775 35.8320271 -37.83203125 34.34375 C-37.83314407 33.63851196 -37.8342569 32.93327393 -37.83540344 32.20666504 C-37.81987553 28.47851487 -37.81987553 28.47851487 -39 25 C-40.98 25.33 -42.96 25.66 -45 26 C-45 25.01 -45 24.02 -45 23 C-45.56203125 23.17402344 -46.1240625 23.34804687 -46.703125 23.52734375 C-49.24556755 24.05053346 -51.18452337 23.90204838 -53.75 23.5625 C-54.54921875 23.46066406 -55.3484375 23.35882813 -56.171875 23.25390625 C-56.77515625 23.17011719 -57.3784375 23.08632812 -58 23 C-58.33 23.66 -58.66 24.32 -59 25 C-59.66 24.67 -60.32 24.34 -61 24 C-61.73075648 21.6859378 -62.40138258 19.35171131 -63 17 C-62.34 17 -61.68 17 -61 17 C-61 15.68 -61 14.36 -61 13 C-60.34 13 -59.68 13 -59 13 C-59 12.34 -59 11.68 -59 11 C-57.68 10.67 -56.36 10.34 -55 10 C-55 9.34 -55 8.68 -55 8 C-53.68 7.67 -52.36 7.34 -51 7 C-51 7.66 -51 8.32 -51 9 C-48.525 9.495 -48.525 9.495 -46 10 C-46 11.65 -46 13.3 -46 15 C-45.34 15 -44.68 15 -44 15 C-44.20625 14.29875 -44.4125 13.5975 -44.625 12.875 C-45.07850357 9.39813928 -44.27540277 7.22601877 -43 4 C-42.505 5.98 -42.505 5.98 -42 8 C-41.01 8 -40.02 8 -39 8 C-39 8.66 -39 9.32 -39 10 C-37.68 10 -36.36 10 -35 10 C-35 9.34 -35 8.68 -35 8 C-34.34 8 -33.68 8 -33 8 C-33 7.01 -33 6.02 -33 5 C-32.34 5 -31.68 5 -31 5 C-30.95875 4.401875 -30.9175 3.80375 -30.875 3.1875 C-30 1 -30 1 -27.375 -0.625 C-17.73034179 -4.55430519 -9.28844124 -5.09953637 0 0 Z M-26 6 C-27.71454256 8.29397246 -28.78745923 10.37282832 -30 13 C-30.33 13.66 -30.66 14.32 -31 15 C-31.11974608 18.05911694 -31.17843194 21.09612286 -31.19287109 24.15625 C-31.20104858 25.10608261 -31.20922607 26.05591522 -31.21765137 27.03453064 C-31.24253623 30.18968066 -31.25903379 33.34478542 -31.2734375 36.5 C-31.27876118 37.57790802 -31.28408485 38.65581604 -31.28956985 39.76638794 C-31.31632124 45.47722666 -31.33568543 51.18804342 -31.35009766 56.89892578 C-31.36670479 62.78564918 -31.41144425 68.67180831 -31.4624691 74.55831909 C-31.49621237 79.09324753 -31.50768318 83.6280436 -31.51332474 88.16308594 C-31.52002298 90.33191209 -31.53520763 92.50072998 -31.55921555 94.66943359 C-31.59100633 97.71627909 -31.59088211 100.76162441 -31.58349609 103.80859375 C-31.59990143 104.69522202 -31.61630676 105.58185028 -31.63320923 106.49534607 C-31.56733216 113.1781603 -29.74352545 118.44006433 -26 124 C-21.39885531 128.50836013 -17.35031067 130.3656634 -10.875 130.625 C-5.60293777 130.31054959 -1.9496995 129.5428867 2 126 C7.37907629 119.74454808 8.87818536 114.65745403 8.74462891 106.52661133 C8.75193024 105.52056351 8.75923157 104.51451569 8.76675415 103.47798157 C8.78286329 100.17862768 8.75584114 96.88126996 8.7265625 93.58203125 C8.72552428 91.27756247 8.72656362 88.97309191 8.72958374 86.66862488 C8.72940477 81.85115948 8.70863999 77.03436679 8.67236328 72.21704102 C8.62691286 66.04648408 8.62591925 59.87690572 8.63939857 53.7062273 C8.64608388 48.95264506 8.63280867 44.19928546 8.61314011 39.44574547 C8.60545142 37.17039848 8.60313333 34.89502671 8.6063118 32.61966896 C8.60705448 29.44103456 8.58178037 26.26365124 8.54931641 23.08520508 C8.55427124 22.14843933 8.55922607 21.21167358 8.56433105 20.246521 C8.45327243 13.42517743 6.98827516 10.06539194 2.18359375 5.13671875 C1.60738281 4.65847656 1.03117188 4.18023437 0.4375 3.6875 C-0.14128906 3.19636719 -0.72007812 2.70523438 -1.31640625 2.19921875 C-9.28352093 -3.47573301 -19.5572494 -0.14807177 -26 6 Z M-54 11 C-54 12.32 -54 13.64 -54 15 C-54.99 15.495 -54.99 15.495 -56 16 C-54.68 16 -53.36 16 -52 16 C-52 14.35 -52 12.7 -52 11 C-52.66 11 -53.32 11 -54 11 Z M-39 11 C-39 12.98 -39 14.96 -39 17 C-38.34 16.67 -37.68 16.34 -37 16 C-37.33 14.35 -37.66 12.7 -38 11 C-38.33 11 -38.66 11 -39 11 Z M-59 15 C-58.34 16.32 -57.68 17.64 -57 19 C-57.33 17.68 -57.66 16.36 -58 15 C-58.33 15 -58.66 15 -59 15 Z M-52 17 C-52 17.66 -52 18.32 -52 19 C-51.01 18.67 -50.02 18.34 -49 18 C-49.99 17.67 -50.98 17.34 -52 17 Z M-41 17 C-41 17.99 -41 18.98 -41 20 C-42.98 20.99 -42.98 20.99 -45 22 C-45 22.33 -45 22.66 -45 23 C-43.35 23 -41.7 23 -40 23 C-39.67 21.35 -39.34 19.7 -39 18 C-39.66 17.67 -40.32 17.34 -41 17 Z M-41 91 C-41.33 92.98 -41.66 94.96 -42 97 C-41.34 97 -40.68 97 -40 97 C-40 95.02 -40 93.04 -40 91 C-40.33 91 -40.66 91 -41 91 Z M-93 102 C-93 102.33 -93 102.66 -93 103 C-90.03 103 -87.06 103 -84 103 C-84 102.34 -84 101.68 -84 101 C-87.04200046 101 -89.99532806 101.55486342 -93 102 Z M-41 104 C-41 105.65 -41 107.3 -41 109 C-40.67 109 -40.34 109 -40 109 C-40 107.35 -40 105.7 -40 104 C-40.33 104 -40.66 104 -41 104 Z " fill="#020102" transform="translate(535,160)"/>
<path d="M0 0 C0.99 0.495 0.99 0.495 2 1 C-2.86158226 4.55193153 -7.72355861 8.10171303 -12.63671875 11.58203125 C-13.24757324 12.01531738 -13.85842773 12.44860352 -14.48779297 12.89501953 C-15.67413597 13.7353326 -16.86188824 14.57366084 -18.05126953 15.40966797 C-20.8924137 17.4235499 -23.56734542 19.48232025 -26.16796875 21.80078125 C-29 24 -29 24 -33 24 C-33.20625 24.5775 -33.4125 25.155 -33.625 25.75 C-35.53585377 28.87685162 -37.87473016 30.11304462 -41 32 C-41.56203125 32.34160156 -42.1240625 32.68320313 -42.703125 33.03515625 C-45.6108488 34.75752418 -48.43638575 36.18374137 -51.5625 37.5 C-55.06037448 38.90040939 -55.06037448 38.90040939 -58.125 41.125 C-60.90434296 42.93761498 -62.74534991 43.61709999 -66 44 C-66.33 44.99 -66.66 45.98 -67 47 C-71.25210538 50.50388083 -75.84084974 52.98606759 -80.96875 54.9453125 C-85.12856372 57.10521578 -88.75223524 60.24673964 -92.42578125 63.13671875 C-95 65 -95 65 -97 65 C-97 65.66 -97 66.32 -97 67 C-102.44994171 72.77787517 -109.36001381 77.69630525 -116 82 C-116.66 82 -117.32 82 -118 82 C-118 82.66 -118 83.32 -118 84 C-118.66 84 -119.32 84 -120 84 C-120.226875 84.721875 -120.45375 85.44375 -120.6875 86.1875 C-123.28795186 91.75989684 -128.62652649 96.07838861 -134 99 C-137.6875 99.6875 -137.6875 99.6875 -141 100 C-142.34361095 100.6457026 -143.67620197 101.31459429 -145 102 C-146.57403776 102.56811297 -148.1578301 103.10988621 -149.75 103.625 C-150.94882812 104.01558594 -150.94882812 104.01558594 -152.171875 104.4140625 C-152.77515625 104.60742188 -153.3784375 104.80078125 -154 105 C-154 105.66 -154 106.32 -154 107 C-154.94875 107.309375 -155.8975 107.61875 -156.875 107.9375 C-159.86080408 108.87394742 -159.86080408 108.87394742 -162 110 C-162 110.99 -162 111.98 -162 113 C-162.66 113 -163.32 113 -164 113 C-164 113.66 -164 114.32 -164 115 C-164.66 115 -165.32 115 -166 115 C-166 116.98 -166 118.96 -166 121 C-166.66 121 -167.32 121 -168 121 C-168.28875 121.639375 -168.5775 122.27875 -168.875 122.9375 C-170 125 -170 125 -172 126 C-172.33 126.99 -172.66 127.98 -173 129 C-172.34 129 -171.68 129 -171 129 C-169.85075225 130.15569212 -168.70486218 131.31488819 -167.57470703 132.48925781 C-164.47394594 135.46406551 -160.92610115 137.87954161 -157.4375 140.375 C-156.63900635 140.94863281 -155.8405127 141.52226562 -155.01782227 142.11328125 C-148.19935178 146.95879719 -141.23216071 151.29115084 -133.796875 155.140625 C-127.9425523 158.21956509 -122.75096764 162.00241672 -117.4909668 165.99121094 C-113.46903998 169.02031284 -109.4007474 171.55287919 -105 174 C-103.17970055 175.15445973 -101.36665214 176.32046517 -99.5625 177.5 C-96.49487018 179.47442299 -93.50962529 181.30827589 -90.1875 182.8125 C-85.65090308 184.97497521 -81.72940172 187.99275408 -77.69165039 190.94897461 C-73.290127 194.14602903 -68.7736038 197.05218679 -64.125 199.875 C-57.63960017 203.82805066 -51.60212688 208.20233872 -45.57641602 212.81982422 C-41.43650597 215.97545214 -37.25387096 218.7483124 -32.73046875 221.33203125 C-26.67702841 225.02991255 -20.9920845 229.31539473 -15.21679688 233.42871094 C-11.70527214 235.91771679 -8.16965635 238.37097542 -4.625 240.8125 C-3.96661133 241.2664917 -3.30822266 241.7204834 -2.62988281 242.18823242 C2.14479425 245.46077064 7.00578774 248.5684518 11.9609375 251.5625 C14 253 14 253 16 256 C10.90639769 254.28167633 6.61904247 251.38114167 2.125 248.5 C0.85100342 247.68934082 0.85100342 247.68934082 -0.44873047 246.86230469 C-5.97641441 243.33231596 -11.44711923 239.72534975 -16.88793945 236.06347656 C-31.81328287 226.057267 -47.09443169 216.57217182 -62.25878906 206.93408203 C-68.30126858 203.09036321 -74.321738 199.21433353 -80.3293457 195.31640625 C-95.57864735 185.42998701 -110.91710107 175.6809222 -126.25708008 165.93603516 C-132.31924526 162.08104645 -138.35262054 158.18422947 -144.37109375 154.26147461 C-148.57401256 151.53446218 -152.81025225 148.86742888 -157.0703125 146.23046875 C-158.13330566 145.57167725 -159.19629883 144.91288574 -160.29150391 144.23413086 C-162.37165764 142.94776582 -164.4545105 141.66575128 -166.54052734 140.38891602 C-173.41346232 136.13874437 -180.26029865 131.73970135 -186 126 C-186.37109375 124.01171875 -186.37109375 124.01171875 -186.4375 121.6875 C-186.47746094 120.92824219 -186.51742188 120.16898437 -186.55859375 119.38671875 C-185.32308781 114.10773882 -180.19649405 111.27760287 -175.83789062 108.56445312 C-175.19013672 108.17193359 -174.54238281 107.77941406 -173.875 107.375 C-173.18341797 106.94896484 -172.49183594 106.52292969 -171.77929688 106.08398438 C-165.60797084 102.30864957 -159.33931985 98.70379731 -153.06542969 95.10253906 C-145.98973972 91.02865696 -139.07598769 86.72865124 -132.17529297 82.3671875 C-128.02855373 79.76093164 -123.85553621 77.19700088 -119.6875 74.625 C-113.07672008 70.54209859 -106.4939998 66.41940388 -99.9375 62.25 C-91.99943877 57.21002863 -83.97887913 52.31008377 -75.9375 47.4375 C-75.33222473 47.07070129 -74.72694946 46.70390259 -74.10333252 46.32598877 C-70.06989494 43.88232797 -66.03505812 41.44098375 -62 39 C-52.45243661 33.22408205 -42.97068533 27.38064388 -33.62695312 21.27954102 C-26.86470938 16.87733289 -20.00481913 12.6376346 -13.12963867 8.41455078 C-8.69568577 5.68746791 -4.30630111 2.92490173 0 0 Z M-178 125 C-177.34 125.66 -176.68 126.32 -176 127 C-176 126.34 -176 125.68 -176 125 C-176.66 125 -177.32 125 -178 125 Z " fill="#060505" transform="translate(511,103)"/>
<path d="M0 0 C8.49846795 0.10774603 15.76197723 6.02410011 22 11.375 C26 15.775 26 15.775 26 18.375 C27.485 18.87 27.485 18.87 29 19.375 C29.495 22.345 29.495 22.345 30 25.375 C28.68 25.705 27.36 26.035 26 26.375 C25.5978125 25.52228516 25.5978125 25.52228516 25.1875 24.65234375 C20.636449 15.68497682 14.35093082 10.14626885 5.0546875 6.2578125 C-4.55271686 3.48124807 -14.18260787 4.8894487 -23 9.375 C-30.74147247 13.8044686 -36.3309619 20.82669827 -39 29.375 C-39.16430544 32.04287484 -39.23476198 34.58840456 -39.1875 37.25 C-39.18685547 37.93191406 -39.18621094 38.61382812 -39.18554688 39.31640625 C-39.14749295 43.75603098 -38.71495367 47.99376394 -38 52.375 C-39.65 52.375 -41.3 52.375 -43 52.375 C-43 53.035 -43 53.695 -43 54.375 C-42.34 54.375 -41.68 54.375 -41 54.375 C-38.8480563 57.60291555 -38.79913557 58.65900809 -39 62.375 C-38.34 62.375 -37.68 62.375 -37 62.375 C-37 63.365 -37 64.355 -37 65.375 C-36.34 65.375 -35.68 65.375 -35 65.375 C-35 66.035 -35 66.695 -35 67.375 C-34.34 67.375 -33.68 67.375 -33 67.375 C-33 68.035 -33 68.695 -33 69.375 C-32.34 69.375 -31.68 69.375 -31 69.375 C-31 70.035 -31 70.695 -31 71.375 C-33.97 71.87 -33.97 71.87 -37 72.375 C-37.4125 71.59125 -37.825 70.8075 -38.25 70 C-40.06666796 67.27499807 -41.02349469 66.5271956 -44 65.375 C-44.66 65.045 -45.32 64.715 -46 64.375 C-46 63.385 -46 62.395 -46 61.375 C-47.32 61.045 -48.64 60.715 -50 60.375 C-50 59.385 -50 58.395 -50 57.375 C-51.98 57.375 -53.96 57.375 -56 57.375 C-56.33 55.725 -56.66 54.075 -57 52.375 C-57.66 52.375 -58.32 52.375 -59 52.375 C-59.391875 51.364375 -59.78375 50.35375 -60.1875 49.3125 C-61.66692009 45.79887728 -63.62141154 43.00517276 -66.01171875 40.05078125 C-67 38.375 -67 38.375 -67 34.375 C-67.99 34.045 -68.98 33.715 -70 33.375 C-68.37660195 31.66615995 -66.70680947 30.00053283 -65 28.375 C-64.34 28.375 -63.68 28.375 -63 28.375 C-63 27.385 -63 26.395 -63 25.375 C-62.34 25.375 -61.68 25.375 -61 25.375 C-61 24.385 -61 23.395 -61 22.375 C-59.9275 21.941875 -58.855 21.50875 -57.75 21.0625 C-55.49109014 20.1073297 -53.88114193 19.28135425 -51.9375 17.75 C-49.38433533 15.93807668 -47.07167865 15.72405439 -44 15.375 C-44 14.715 -44 14.055 -44 13.375 C-40.535 12.88 -40.535 12.88 -37 12.375 C-37 11.715 -37 11.055 -37 10.375 C-26.85790484 4.72831999 -16.74685211 0.84105218 -5 1.375 C-3.47912153 -0.14587847 -2.11960515 0.09567662 0 0 Z M-49 18.375 C-48 20.375 -48 20.375 -48 20.375 Z M-42 36.375 C-41 39.375 -41 39.375 -41 39.375 Z M-49 52.375 C-45 53.375 -45 53.375 -45 53.375 Z M-47 57.375 C-46 60.375 -46 60.375 -46 60.375 Z " fill="#020101" transform="translate(443,186.625)"/>
<path d="M0 0 C8.79866112 7.06092555 15.62554529 16.76709234 17.25 27.9375 C18.16768376 38.79987918 15.2410223 47.95096654 9.25 56.9375 C8.59 56.9375 7.93 56.9375 7.25 56.9375 C6.99476563 57.53046875 6.73953125 58.1234375 6.4765625 58.734375 C5.13183502 61.14974538 3.75785633 62.44961706 1.625 64.1875 C0.99335937 64.70828125 0.36171875 65.2290625 -0.2890625 65.765625 C-0.77117187 66.15234375 -1.25328125 66.5390625 -1.75 66.9375 C-2.41 66.6075 -3.07 66.2775 -3.75 65.9375 C-2.87988281 65.24527344 -2.87988281 65.24527344 -1.9921875 64.5390625 C7.43570157 56.66693071 13.25584311 47.3022124 14.56640625 34.95703125 C14.84024948 27.98727936 13.69388434 22.96712045 10.25 16.9375 C9.88777344 16.24914062 9.52554688 15.56078125 9.15234375 14.8515625 C4.40295235 6.44755467 -2.62635355 0.98417547 -11.75 -2.0625 C-27.3598199 -5.86915003 -39.37283292 -0.39196064 -52.49121094 7.5546875 C-64.98510295 15.20334772 -77.38136946 23.00096028 -89.6484375 31.00830078 C-95.47159136 34.79476418 -101.39163396 38.41153902 -107.33959961 41.99804688 C-112.87264723 45.34970892 -118.19966864 48.90997774 -123.46484375 52.671875 C-124.21894531 53.08953125 -124.97304688 53.5071875 -125.75 53.9375 C-126.74 53.6075 -127.73 53.2775 -128.75 52.9375 C-128.06761939 50.62469853 -127.20870406 49.24686864 -125.20068359 47.89257812 C-123.13511412 46.77388219 -121.04650759 45.72199966 -118.9375 44.6875 C-112.30715271 41.31318307 -105.96392176 37.73234595 -99.6640625 33.76953125 C-97.02921361 32.11303778 -94.36910416 30.51666689 -91.6875 28.9375 C-86.83491224 26.04491512 -82.17095555 22.89432924 -77.484375 19.7421875 C-74.94577437 18.06671108 -72.36745973 16.51875208 -69.703125 15.05078125 C-66.94558969 13.47898612 -64.26045039 11.79683419 -61.5625 10.125 C-59.29278166 8.72734679 -57.02128589 7.33260672 -54.75 5.9375 C-53.72003906 5.29941406 -52.69007813 4.66132813 -51.62890625 4.00390625 C-35.45291491 -5.77741491 -17.28358862 -10.96227612 0 0 Z " fill="#141212" transform="translate(532.75,26.0625)"/>
<path d="M0 0 C6.39264215 9.58896323 4.19581553 24.06983336 4.23828125 35.24609375 C4.24235678 36.15879595 4.2464323 37.07149815 4.25063133 38.01185799 C4.27136539 42.83676033 4.2857251 47.66163525 4.29516602 52.48657227 C4.30624682 57.43674534 4.34070269 62.38647106 4.38033772 67.33648586 C4.406604 71.17577389 4.41486634 75.0149563 4.41844749 78.85432625 C4.42328192 80.67818307 4.43480471 82.5020362 4.45348549 84.32580376 C4.67522343 107.39297269 4.67522343 107.39297269 -1.51005554 114.8110199 C-3 116 -3 116 -5 116 C-5.33 116.99 -5.66 117.98 -6 119 C-6.66 118.67 -7.32 118.34 -8 118 C-7.50221039 117.48700348 -7.00442078 116.97400696 -6.49154663 116.44546509 C1.50169601 106.48451269 -0.13746157 94.9077974 -0.3515625 82.7734375 C-0.36717707 80.41502764 -0.3795266 78.0565941 -0.38876343 75.69815063 C-0.42100748 69.52000482 -0.49446037 63.3430488 -0.57763672 57.16540527 C-0.67179987 49.62968398 -0.71930305 42.09355145 -0.77156639 34.55744362 C-0.81273305 28.70223535 -0.86163172 22.84743988 -0.93374634 16.99252319 C-0.94531769 15.92225891 -0.95688904 14.85199463 -0.96881104 13.7492981 C-0.99072385 11.74252591 -1.01648268 9.73579088 -1.04666138 7.72912598 C-1.05540283 6.85174774 -1.06414429 5.97436951 -1.07315063 5.07040405 C-1.08316416 4.3039324 -1.09317768 3.53746075 -1.10349464 2.74776268 C-1 1 -1 1 0 0 Z " fill="#191718" transform="translate(543,170)"/>
<path d="M0 0 C0.99 0.495 0.99 0.495 2 1 C-2.86158226 4.55193153 -7.72355861 8.10171303 -12.63671875 11.58203125 C-13.55300049 12.23196045 -13.55300049 12.23196045 -14.48779297 12.89501953 C-15.67413597 13.7353326 -16.86188824 14.57366084 -18.05126953 15.40966797 C-20.8924137 17.4235499 -23.56734542 19.48232025 -26.16796875 21.80078125 C-29 24 -29 24 -33 24 C-33.20625 24.5775 -33.4125 25.155 -33.625 25.75 C-35.53585377 28.87685162 -37.87473016 30.11304462 -41 32 C-41.56203125 32.34160156 -42.1240625 32.68320313 -42.703125 33.03515625 C-45.6108488 34.75752418 -48.43638575 36.18374137 -51.5625 37.5 C-55.06037448 38.90040939 -55.06037448 38.90040939 -58.125 41.125 C-60.90434296 42.93761498 -62.74534991 43.61709999 -66 44 C-66.33 44.99 -66.66 45.98 -67 47 C-70.80017373 50.13147363 -74.95447631 52.57058849 -79.5 54.4375 C-83.61168566 56.27307396 -86.58787614 58.75041094 -89.984375 61.671875 C-90.64953125 62.11015625 -91.3146875 62.5484375 -92 63 C-92.99 62.67 -93.98 62.34 -95 62 C-92.82641025 57.72426592 -90.67983658 55.83645998 -86.5390625 53.46875 C-85.43804199 52.8296167 -84.33702148 52.1904834 -83.20263672 51.53198242 C-82.32765533 51.03509415 -82.32765533 51.03509415 -81.43499756 50.52816772 C-78.97795956 49.13244917 -76.53678311 47.7100074 -74.09439087 46.28886414 C-72.85230431 45.56643477 -71.60944143 44.84533853 -70.36581421 44.12556458 C-64.81011505 40.90710167 -59.32773559 37.57756715 -53.875 34.1875 C-53.02309082 33.65833984 -52.17118164 33.12917969 -51.29345703 32.58398438 C-45.30907846 28.85027017 -39.38152024 25.03339971 -33.47485352 21.17822266 C-26.76260929 16.81068285 -19.9522192 12.60538428 -13.12890625 8.4140625 C-8.69517318 5.68718066 -4.30605851 2.92473696 0 0 Z " fill="#0B0A0A" transform="translate(511,103)"/>
<path d="M0 0 C8.49846795 0.10774603 15.76197723 6.02410011 22 11.375 C26 15.775 26 15.775 26 18.375 C26.99 18.705 27.98 19.035 29 19.375 C29.495 22.345 29.495 22.345 30 25.375 C28.68 25.705 27.36 26.035 26 26.375 C25.731875 25.80652344 25.46375 25.23804688 25.1875 24.65234375 C20.63407891 15.68030679 14.35010721 10.15866156 5.05859375 6.25390625 C-4.07185884 3.63021298 -13.27385455 4.99713725 -22 8.375 C-21.67 6.725 -21.34 5.075 -21 3.375 C-15.52012537 1.98328581 -10.64632407 1.25736825 -5 1.375 C-3.47912153 -0.14587847 -2.11960515 0.09567662 0 0 Z " fill="#070507" transform="translate(443,186.625)"/>
<path d="M0 0 C3.43927579 1.2419607 6.25207819 2.55740284 9 5 C9 5.66 9 6.32 9 7 C9.66 7 10.32 7 11 7 C18.74437334 14.90043124 23.44193748 24.01183402 23.5 35.125 C23.35752811 42.97566055 21.51835363 49.08567025 18 56 C17.34 56 16.68 56 16 56 C16 56.99 16 57.98 16 59 C14.625 60.6875 14.625 60.6875 13 62 C12.34 62 11.68 62 11 62 C11 62.66 11 63.32 11 64 C10.34 64 9.68 64 9 64 C8.505 65.485 8.505 65.485 8 67 C5.26953125 68.5703125 5.26953125 68.5703125 1.8125 70.125 C0.12060547 70.90230469 0.12060547 70.90230469 -1.60546875 71.6953125 C-10.24110686 75.01441852 -19.01886794 74.30634648 -28 73 C-28 72.67 -28 72.34 -28 72 C-27.410979 71.9906543 -26.82195801 71.98130859 -26.21508789 71.97167969 C-23.49676984 71.91736125 -20.78006152 71.8338416 -18.0625 71.75 C-17.13630859 71.73582031 -16.21011719 71.72164063 -15.25585938 71.70703125 C-5.84944001 71.37698145 2.71854336 68.17556277 9.55859375 61.47265625 C17.49696684 52.74242549 20.55882577 42.72155819 20.30859375 31.01953125 C19.05572541 18.76045239 10.75016986 10.12702105 1.72265625 2.53125 C1.15417969 2.0259375 0.58570313 1.520625 0 1 C0 0.67 0 0.34 0 0 Z " fill="#232122" transform="translate(527,359)"/>
<path d="M0 0 C4.21727925 1.41335845 6.97287993 3.46551913 10.3125 6.375 C13.41606755 8.98199675 16.23125389 11.34071827 19.9375 13 C24.68758894 15.13465535 28.54147354 18.34019079 32.65234375 21.5 C36.8231677 24.6639873 41.19007034 27.52015301 45.55932617 30.39990234 C49.99722954 33.32570328 54.36949008 36.32901056 58.70703125 39.40234375 C61.84953197 41.59192262 65.06155049 43.67041463 68.28515625 45.73828125 C70 47 70 47 71 49 C65.90639769 47.28167633 61.61904247 44.38114167 57.125 41.5 C56.27566895 40.95956055 55.42633789 40.41912109 54.55126953 39.86230469 C49.03305558 36.33836351 43.56977259 32.7402268 38.140625 29.08105469 C30.81433002 24.16452093 23.35990544 19.44605336 15.91748047 14.70800781 C9.89845984 10.87245975 3.91779899 6.99015886 -2 3 C-1.34 2.67 -0.68 2.34 0 2 C0 1.34 0 0.68 0 0 Z " fill="#0D0C0D" transform="translate(456,310)"/>
<path d="M0 0 C5.14029242 5.31163551 6.04965407 11.33763311 6.25 18.5 C5.99228158 27.76175569 3.10329528 35.34505708 -2 43 C-2.66 43 -3.32 43 -4 43 C-4.25523437 43.59296875 -4.51046875 44.1859375 -4.7734375 44.796875 C-6.11816498 47.21224538 -7.49214367 48.51211706 -9.625 50.25 C-10.57246094 51.03117187 -10.57246094 51.03117187 -11.5390625 51.828125 C-12.02117188 52.21484375 -12.50328125 52.6015625 -13 53 C-13.66 52.67 -14.32 52.34 -15 52 C-14.41992188 51.53851563 -13.83984375 51.07703125 -13.2421875 50.6015625 C-3.85758432 42.7655737 2.13005118 33.32778458 3.28125 20.984375 C3.47599662 14.52527866 2.52976177 9.90277745 0 4 C0 2.68 0 1.36 0 0 Z " fill="#060505" transform="translate(544,40)"/>
<path d="M0 0 C3.43927579 1.2419607 6.25207819 2.55740284 9 5 C9 5.66 9 6.32 9 7 C9.66 7 10.32 7 11 7 C18.89050997 15.04951269 23.42752512 24.13078173 23.375 35.375 C23.30914506 39.67190698 22.98806066 43.80479161 22 48 C21.34 47.67 20.68 47.34 20 47 C20.04640625 45.74445313 20.0928125 44.48890625 20.140625 43.1953125 C20.51152297 29.07862557 18.87785315 19.68186445 9 9 C6.62736219 6.77092945 4.21351608 4.62706528 1.72265625 2.53125 C1.15417969 2.0259375 0.58570313 1.520625 0 1 C0 0.67 0 0.34 0 0 Z " fill="#080606" transform="translate(527,359)"/>
<path d="M0 0 C0.94875 0.515625 1.8975 1.03125 2.875 1.5625 C7.30873946 5.02081678 11.12815778 9.14355136 14 14 C13.72265625 16.3125 13.72265625 16.3125 13 18 C12.731875 17.50371094 12.46375 17.00742187 12.1875 16.49609375 C7.27094036 7.97297885 0.52532709 1.86335361 -9 -1 C-13.31530847 -1.85234648 -17.63214547 -2.48692899 -22 -3 C-22 -3.33 -22 -3.66 -22 -4 C-14.46965735 -5.90641586 -6.57971141 -3.97843016 0 0 Z " fill="#1D1A1C" transform="translate(530,25)"/>
<path d="M0 0 C0 0.33 0 0.66 0 1 C-3.3 1.33 -6.6 1.66 -10 2 C-10.33 2.99 -10.66 3.98 -11 5 C-17.05872276 7.63422729 -22.56948005 6.86050357 -29 6 C-25.89652785 2.89652785 -22.08615399 2.73377007 -17.875 1.875 C-16.62976563 1.60236328 -16.62976563 1.60236328 -15.359375 1.32421875 C-10.13131915 0.23435758 -5.33817743 -0.18492532 0 0 Z " fill="#919091" transform="translate(320,27)"/>
<path d="M0 0 C0.45890625 0.40992188 0.9178125 0.81984375 1.390625 1.2421875 C2.00421875 1.78101563 2.6178125 2.31984375 3.25 2.875 C3.85328125 3.40867187 4.4565625 3.94234375 5.078125 4.4921875 C10.67290264 8.88158622 16.11027158 8.47768784 23 8 C26.55542252 7.15697007 26.55542252 7.15697007 29 6 C28 9 28 9 25.765625 10.1640625 C18.50575186 12.35843093 11.5337005 11.54523657 4.81640625 8.14453125 C2.5513812 6.71732192 1.17173179 5.42157904 0 3 C0 2.01 0 1.02 0 0 Z " fill="#1D1C1C" transform="translate(507,281)"/>
<path d="M0 0 C1.109375 1.74609375 1.109375 1.74609375 2 4 C1.390625 6.03515625 1.390625 6.03515625 0.25 8.0625 C-0.11609375 8.73410156 -0.4821875 9.40570313 -0.859375 10.09765625 C-1.85734912 11.7620857 -2.92349887 13.3852483 -4 15 C-4.66 15 -5.32 15 -6 15 C-6.25523437 15.59296875 -6.51046875 16.1859375 -6.7734375 16.796875 C-8.11816498 19.21224538 -9.49214367 20.51211706 -11.625 22.25 C-12.25664063 22.77078125 -12.88828125 23.2915625 -13.5390625 23.828125 C-14.02117188 24.21484375 -14.50328125 24.6015625 -15 25 C-15.66 24.67 -16.32 24.34 -17 24 C-16.41992188 23.53851563 -15.83984375 23.07703125 -15.2421875 22.6015625 C-7.80956927 16.39544893 -2.50053504 9.50203315 0 0 Z " fill="#181718" transform="translate(546,68)"/>
<path d="M0 0 C1.32 0 2.64 0 4 0 C4 0.99 4 1.98 4 3 C8.29 3 12.58 3 17 3 C17 3.33 17 3.66 17 4 C19.97 4.495 19.97 4.495 23 5 C23 5.33 23 5.66 23 6 C7.25512528 6.55353075 7.25512528 6.55353075 0 3 C0 2.01 0 1.02 0 0 Z " fill="#000000" transform="translate(417,260)"/>
<path d="M0 0 C0.33 1.32 0.66 2.64 1 4 C-0.42859407 5.03325986 -1.86822383 6.05127634 -3.3125 7.0625 C-4.51326172 7.91521484 -4.51326172 7.91521484 -5.73828125 8.78515625 C-6.48464844 9.18605469 -7.23101562 9.58695313 -8 10 C-8.99 9.67 -9.98 9.34 -11 9 C-9.55613418 5.28720216 -7.87763608 4.0513557 -4.375 2.25 C-3.55773437 1.82203125 -2.74046875 1.3940625 -1.8984375 0.953125 C-0.95871094 0.48132813 -0.95871094 0.48132813 0 0 Z " fill="#0D0C0C" transform="translate(415,70)"/>
<path d="M0 0 C0.66 0.33 1.32 0.66 2 1 C1.6186908 6.62431073 1.22315022 9.90482403 -3 14 C-3.66 14 -4.32 14 -5 14 C-5.33 14.99 -5.66 15.98 -6 17 C-6.66 16.67 -7.32 16.34 -8 16 C-7.50628906 15.26394531 -7.01257813 14.52789062 -6.50390625 13.76953125 C-5.86324219 12.79371094 -5.22257813 11.81789063 -4.5625 10.8125 C-3.92441406 9.84957031 -3.28632812 8.88664062 -2.62890625 7.89453125 C-1.08453813 5.15022243 -0.40183359 3.09581657 0 0 Z " fill="#0A0808" transform="translate(543,272)"/>
<path d="M0 0 C-1.5625 2 -1.5625 2 -4 4 C-7.5 4.125 -7.5 4.125 -11 4 C-12.3479743 4.63654342 -13.68596724 5.29605388 -15 6 C-15.99 5.67 -16.98 5.34 -18 5 C-16.23002526 4.18563132 -14.45898848 3.3735706 -12.6875 2.5625 C-11.70136719 2.11003906 -10.71523438 1.65757813 -9.69921875 1.19140625 C-5.91942643 -0.4769536 -3.94996412 -1.22585093 0 0 Z " fill="#6F6D6E" transform="translate(277,39)"/>
<path d="M0 0 C3.43927579 1.2419607 6.25207819 2.55740284 9 5 C9 5.66 9 6.32 9 7 C9.66 7 10.32 7 11 7 C12.5078125 8.75 12.5078125 8.75 14.125 11 C14.66382813 11.7425 15.20265625 12.485 15.7578125 13.25 C16.16773438 13.8275 16.57765625 14.405 17 15 C16.34 15.66 15.68 16.32 15 17 C14.67128906 16.5153125 14.34257813 16.030625 14.00390625 15.53125 C10.4308644 10.49606908 6.47480829 6.543939 1.7578125 2.56640625 C1.17773438 2.04949219 0.59765625 1.53257812 0 1 C0 0.67 0 0.34 0 0 Z " fill="#1A191A" transform="translate(527,359)"/>
<path d="M0 0 C12.66970387 7.11389522 12.66970387 7.11389522 18 12 C13.65847551 12 10.9639724 9.88656601 7.3125 7.6875 C6.61060547 7.28337891 5.90871094 6.87925781 5.18554688 6.46289062 C3.40141352 5.39657186 1.69303288 4.20573928 0 3 C0 2.01 0 1.02 0 0 Z " fill="#171517" transform="translate(509,346)"/>
<path d="M0 0 C3.12841269 0.1078763 4.21517823 1.19418523 6.5625 3.3125 C12 9.30769231 12 9.30769231 12 12 C11.34 12 10.68 12 10 12 C8.84728475 10.75146711 7.75104998 9.45031062 6.6875 8.125 C4.03962263 4.9896473 2.11550873 2.99769909 -2 2 C-1.34 1.34 -0.68 0.68 0 0 Z " fill="#131113" transform="translate(531,159)"/>
<path d="M0 0 C0.33 0 0.66 0 1 0 C1 1.98 1 3.96 1 6 C0.01 6.495 0.01 6.495 -1 7 C-1.78623891 9.16072227 -2.48201226 11.35490875 -3.125 13.5625 C-3.47820312 14.76003906 -3.83140625 15.95757812 -4.1953125 17.19140625 C-4.46085938 18.11824219 -4.72640625 19.04507813 -5 20 C-5.33 20 -5.66 20 -6 20 C-5.46137794 14.07515739 -4.29622483 4.29622483 0 0 Z " fill="#353334" transform="translate(160,152)"/>
<path d="M0 0 C3.63 1.98 7.26 3.96 11 6 C10.34 6.66 9.68 7.32 9 8 C7.70359622 7.40606618 6.41301161 6.79942011 5.125 6.1875 C4.40570313 5.85105469 3.68640625 5.51460938 2.9453125 5.16796875 C1 4 1 4 -1 1 C-0.67 0.67 -0.34 0.34 0 0 Z " fill="#E1DFE0" transform="translate(418,290)"/>
<path d="M0 0 C1.9375 0 1.9375 0 4 1 C5.75 4.0625 5.75 4.0625 7 7 C2.61031544 7 1.23094261 4.87194899 -2 2 C-1.34 1.34 -0.68 0.68 0 0 Z " fill="#0F0C0C" transform="translate(458,195)"/>
<path d="M0 0 C1.24546405 2.49092811 0.7767578 3.41080733 0 6 C-0.66 6 -1.32 6 -2 6 C-1.67 6.99 -1.34 7.98 -1 9 C-2.98 10.32 -4.96 11.64 -7 13 C-5.58832253 7.73829306 -3.25149768 4.27828642 0 0 Z " fill="#797777" transform="translate(179,114)"/>
<path d="M0 0 C-2 3 -2 3 -4.4375 3.5 C-5.283125 3.665 -6.12875 3.83 -7 4 C-8.79385992 5.4579186 -8.79385992 5.4579186 -10 7 C-10 6.34 -10 5.68 -10 5 C-10.66 4.67 -11.32 4.34 -12 4 C-10.56988027 3.13353333 -9.13059381 2.28218171 -7.6875 1.4375 C-6.48673828 0.72400391 -6.48673828 0.72400391 -5.26171875 -0.00390625 C-3 -1 -3 -1 0 0 Z " fill="#E2DFE0" transform="translate(480,36)"/>
<path d="M0 0 C0.68835938 0.59748047 0.68835938 0.59748047 1.390625 1.20703125 C4.52271585 3.91142062 7.63877459 6.57991771 11 9 C10.01 9.495 10.01 9.495 9 10 C4.95281887 8.3639055 2.17007006 6.85790233 0 3 C0 2.01 0 1.02 0 0 Z " fill="#141314" transform="translate(507,281)"/>
<path d="M0 0 C-2.125 2.5625 -2.125 2.5625 -5 5 C-8.3125 4.8125 -8.3125 4.8125 -11 4 C-7.04396675 0.96704118 -5.03239385 -0.13243142 0 0 Z " fill="#E4E1E2" transform="translate(501,24)"/>
<path d="M0 0 C4.875 1.75 4.875 1.75 6 4 C5.01 5.485 5.01 5.485 4 7 C2.02 5.68 0.04 4.36 -2 3 C-1.34 2.01 -0.68 1.02 0 0 Z " fill="#100E0F" transform="translate(365,252)"/>
<path d="M0 0 C2.35171131 0.59861742 4.6859378 1.26924352 7 2 C7.33 2.66 7.66 3.32 8 4 C4.37 4 0.74 4 -3 4 C-2.34 3.67 -1.68 3.34 -1 3 C-0.67 2.01 -0.34 1.02 0 0 Z " fill="#090609" transform="translate(523,156)"/>
<path d="M0 0 C1.98 0 3.96 0 6 0 C6 0.33 6 0.66 6 1 C8.64 1.33 11.28 1.66 14 2 C14 2.33 14 2.66 14 3 C9.38 3 4.76 3 0 3 C0 2.01 0 1.02 0 0 Z " fill="#E2E1E1" transform="translate(503,22)"/>
<path d="M0 0 C2.64 0 5.28 0 8 0 C8 0.66 8 1.32 8 2 C10.31 2.66 12.62 3.32 15 4 C11.21180727 5.43410153 8.93478721 4.51009497 5.25 3.0625 C3.77273438 2.49208984 3.77273438 2.49208984 2.265625 1.91015625 C1.51796875 1.60980469 0.7703125 1.30945313 0 1 C0 0.67 0 0.34 0 0 Z " fill="#585658" transform="translate(278,415)"/>
<path d="M0 0 C0.66 0.33 1.32 0.66 2 1 C0.02 2.98 -1.96 4.96 -4 7 C-4.99 6.67 -5.98 6.34 -7 6 C-7 5.34 -7 4.68 -7 4 C-1.7265625 0.77734375 -1.7265625 0.77734375 0 0 Z " fill="#E2DFE0" transform="translate(325,130)"/>
<path d="M0 0 C1.81612488 0.95144598 3.62781081 1.91136933 5.4375 2.875 C6.44683594 3.40867187 7.45617187 3.94234375 8.49609375 4.4921875 C11 6 11 6 12 8 C7.39571066 6.68448876 3.81679612 4.90803514 0 2 C0 1.34 0 0.68 0 0 Z " fill="#141113" transform="translate(449,401)"/>
<path d="M0 0 C2 3 2 3 1.875 5.5625 C1 8 1 8 -3 10 C-2.01 6.7 -1.02 3.4 0 0 Z " fill="#1E1C1D" transform="translate(546,403)"/>
<path d="M0 0 C0.33 0.99 0.66 1.98 1 3 C-0.8125 4.5625 -0.8125 4.5625 -3 6 C-3.99 5.67 -4.98 5.34 -6 5 C-2.25 1.125 -2.25 1.125 0 0 Z " fill="#E2DFE0" transform="translate(254,174)"/>
<path d="M0 0 C3.36525621 0.46417327 5.40608501 1.86928411 8 4 C7.34 4.66 6.68 5.32 6 6 C5.401875 5.54625 4.80375 5.0925 4.1875 4.625 C2.49409348 3.36704087 0.75522914 2.17015276 -1 1 C-0.67 0.67 -0.34 0.34 0 0 Z " fill="#DFDDDF" transform="translate(404,282)"/>
<path d="M0 0 C0.66 0.66 1.32 1.32 2 2 C-0.97 3.65 -3.94 5.3 -7 7 C-4.91100178 2.82200357 -3.94455388 2.07608099 0 0 Z " fill="#DBD7D9" transform="translate(361,194)"/>
<path d="M0 0 C0 0.66 0 1.32 0 2 C-5.75 5 -5.75 5 -8 5 C-7 2 -7 2 -5.125 0.8125 C-3 0 -3 0 0 0 Z " fill="#0F0E0F" transform="translate(439,58)"/>
<path d="M0 0 C3.45925163 1.2491742 6.14693203 2.67527795 9 5 C8.67 5.99 8.34 6.98 8 8 C6.66372225 6.85760183 5.33104612 5.71098945 4 4.5625 C3.2575 3.92441406 2.515 3.28632813 1.75 2.62890625 C1.1725 2.09136719 0.595 1.55382812 0 1 C0 0.67 0 0.34 0 0 Z " fill="#201F21" transform="translate(527,359)"/>
<path d="M0 0 C0.66 0 1.32 0 2 0 C3.38232443 1.62626404 4.71937515 3.2925002 6 5 C5.67 5.66 5.34 6.32 5 7 C3.68 6.67 2.36 6.34 1 6 C0.67 4.02 0.34 2.04 0 0 Z " fill="#000000" transform="translate(463,198)"/>
<path d="M0 0 C0.33 0 0.66 0 1 0 C1 1.98 1 3.96 1 6 C0.34 6 -0.32 6 -1 6 C-1.33 6.99 -1.66 7.98 -2 9 C-3 6 -3 6 -1.5625 2.8125 C-1.046875 1.884375 -0.53125 0.95625 0 0 Z " fill="#646263" transform="translate(164,142)"/>
<path d="M0 0 C2.475 0.495 2.475 0.495 5 1 C5 1.66 5 2.32 5 3 C5.66 3.33 6.32 3.66 7 4 C4.69 3.67 2.38 3.34 0 3 C0 2.01 0 1.02 0 0 Z " fill="#DDDADC" transform="translate(305,383)"/>
<path d="M0 0 C0 0.99 0 1.98 0 3 C-2.5 4.6875 -2.5 4.6875 -5 6 C-5.66 5.34 -6.32 4.68 -7 4 C-4.69 2.68 -2.38 1.36 0 0 Z " fill="#E0DDDE" transform="translate(310,139)"/>
<path d="M0 0 C0.66 0 1.32 0 2 0 C2 0.66 2 1.32 2 2 C1.34 2 0.68 2 0 2 C0 1.34 0 0.68 0 0 Z " fill="#000000" transform="translate(415,258)"/>
<path d="M0 0 C0.66 0 1.32 0 2 0 C2 0.66 2 1.32 2 2 C1.34 2 0.68 2 0 2 C0 1.34 0 0.68 0 0 Z " fill="#000000" transform="translate(472,214)"/>
<path d="M0 0 C4 1 4 1 4 1 Z " fill="#000000" transform="translate(483,189)"/>
<path d="M0 0 C0 3 0 3 0 3 Z " fill="#000000" transform="translate(488,186)"/>
<path d="M0 0 C0.66 0.66 1.32 1.32 2 2 C1.01 1.67 0.02 1.34 -1 1 C-0.67 0.67 -0.34 0.34 0 0 Z " fill="#000000" transform="translate(477,185)"/>
<path d="M0 0 C2 1 2 1 2 1 Z " fill="#000000" transform="translate(408,259)"/>
<path d="M0 0 C2 1 2 1 2 1 Z " fill="#000000" transform="translate(489,162)"/>
<path d="" fill="#000000" transform="translate(0,0)"/>
<path d="" fill="#000000" transform="translate(0,0)"/>
<path d="" fill="#000000" transform="translate(0,0)"/>
<path d="" fill="#000000" transform="translate(0,0)"/>
<path d="" fill="#000000" transform="translate(0,0)"/>
<path d="" fill="#000000" transform="translate(0,0)"/>
</svg>
