<?xml version="1.0" encoding="UTF-8"?>
<!DOCTYPE svg PUBLIC "-//W3C//DTD SVG 1.1//EN" "http://www.w3.org/Graphics/SVG/1.1/DTD/svg11.dtd">
<svg xmlns="http://www.w3.org/2000/svg" version="1.1" width="682px" height="488px" style="shape-rendering:geometricPrecision; text-rendering:geometricPrecision; image-rendering:optimizeQuality; fill-rule:evenodd; clip-rule:evenodd" xmlns:xlink="http://www.w3.org/1999/xlink">
<g><path style="opacity:1" fill="#020202" d="M -0.5,-0.5 C 226.833,-0.5 454.167,-0.5 681.5,-0.5C 681.5,162.167 681.5,324.833 681.5,487.5C 454.167,487.5 226.833,487.5 -0.5,487.5C -0.5,324.833 -0.5,162.167 -0.5,-0.5 Z"/></g>
<g><path style="opacity:1" fill="#ebe6e9" d="M 502.5,21.5 C 525.036,20.1782 539.869,30.1782 547,51.5C 548.365,71.6054 540.198,86.4388 522.5,96C 456.916,136.375 391.416,176.875 326,217.5C 323.122,223.67 324.289,228.836 329.5,233C 396.167,275.667 462.833,318.333 529.5,361C 552.373,381.003 553.373,402.003 532.5,424C 521.018,431.845 508.684,433.512 495.5,429C 490.341,426.588 485.341,423.921 480.5,421C 402.337,370.084 324.004,319.418 245.5,269C 222.891,250.625 216.724,227.792 227,200.5C 231.412,191.855 237.579,184.688 245.5,179C 324.002,130.25 402.335,81.2503 480.5,32C 487.54,27.6447 494.873,24.1447 502.5,21.5 Z"/></g>
<g><path style="opacity:1" fill="#eae6e9" d="M 331.5,24.5 C 345.837,24.3334 360.171,24.5001 374.5,25C 388.943,31.6611 392.109,41.8277 384,55.5C 381.222,58.8071 377.722,60.9738 373.5,62C 313.307,57.375 263.141,77.2083 223,121.5C 184.529,172.673 176.529,228.34 199,288.5C 223.941,342.093 265.441,374.926 323.5,387C 340.131,388.475 356.797,389.475 373.5,390C 387.312,394.806 391.479,403.972 386,417.5C 383.079,421.092 379.579,423.925 375.5,426C 288.53,432.832 221.364,399.999 174,327.5C 145.284,274.309 139.618,218.642 157,160.5C 181.647,93.8546 228.147,50.6879 296.5,31C 308.243,28.5015 319.91,26.3348 331.5,24.5 Z"/></g>
<g><path style="opacity:1" fill="#eae5e8" d="M 517.5,159.5 C 529.005,157.668 537.171,162.001 542,172.5C 542.667,207.167 542.667,241.833 542,276.5C 537.492,287.647 529.326,291.813 517.5,289C 509.723,286.22 505.223,280.72 504,272.5C 503.333,239.833 503.333,207.167 504,174.5C 506.263,167.407 510.763,162.407 517.5,159.5 Z"/></g>
<g><path style="opacity:1" fill="#eae6e9" d="M 430.5,190.5 C 451.013,189.162 464.513,198.162 471,217.5C 473.155,238.357 464.322,252.19 444.5,259C 414.387,260.218 400.554,245.718 403,215.5C 407.623,202.038 416.79,193.705 430.5,190.5 Z"/></g>
</svg>
